<svg width="80" height="76" viewBox="0 0 80 76" fill="none" xmlns="http://www.w3.org/2000/svg">
<path d="M32.0091 4.73401C36.775 2.05116 42.5811 1.98849 47.4038 4.56784L65.745 14.3774C70.895 17.1319 74.1351 22.4736 74.1981 28.3136L74.3993 46.9474C74.4623 52.7875 71.3383 58.1978 66.2489 61.0628L48.1237 71.266C43.3578 73.9488 37.5517 74.0115 32.729 71.4321L14.3878 61.6225C9.23778 58.8681 5.9977 53.5264 5.93467 47.6864L5.73355 29.0525C5.67051 23.2125 8.79454 17.8021 13.8839 14.9372L32.0091 4.73401Z" fill="#FFD700"/>
<path d="M32.0091 4.73401C36.775 2.05116 42.5811 1.98849 47.4038 4.56784L65.745 14.3774C70.895 17.1319 74.1351 22.4736 74.1981 28.3136L74.3993 46.9474C74.4623 52.7875 71.3383 58.1978 66.2489 61.0628L48.1237 71.266C43.3578 73.9488 37.5517 74.0115 32.729 71.4321L14.3878 61.6225C9.23778 58.8681 5.9977 53.5264 5.93467 47.6864L5.73355 29.0525C5.67051 23.2125 8.79454 17.8021 13.8839 14.9372L32.0091 4.73401Z" fill="#36F5C7"/>
<path d="M39.06 42.1025L42.58 38.5825L39.06 35.0625" stroke="#292D32" stroke-width="1.5" stroke-miterlimit="10" stroke-linecap="round" stroke-linejoin="round"/>
<path d="M28.5 38.5825H42.4838" stroke="#292D32" stroke-width="1.5" stroke-miterlimit="10" stroke-linecap="round" stroke-linejoin="round"/>
<path d="M39.5 27.5C45.5775 27.5 50.5 31.625 50.5 38.5C50.5 45.375 45.5775 49.5 39.5 49.5" stroke="#292D32" stroke-width="1.5" stroke-miterlimit="10" stroke-linecap="round" stroke-linejoin="round"/>
</svg>
