<svg width="25" height="26" viewBox="0 0 25 26" fill="none" xmlns="http://www.w3.org/2000/svg">
<path d="M13.9893 16.9065H4.58303C3.41637 16.9065 2.35387 16.3024 1.76012 15.292C1.16637 14.2816 1.14553 13.0731 1.70803 12.0419L6.40595 3.48986C6.98928 2.42736 8.0622 1.79193 9.28095 1.79193C10.4997 1.79193 11.5726 2.42736 12.1559 3.48986L16.8643 12.0419C17.4268 13.0627 17.4059 14.2816 16.8122 15.292C16.2184 16.3024 15.1559 16.9065 13.9893 16.9065ZM9.28095 3.36486C8.64553 3.36486 8.08303 3.6982 7.78095 4.25029L3.08303 12.8023C2.79137 13.344 2.80178 13.969 3.10387 14.5002C3.41637 15.0315 3.96845 15.344 4.58303 15.344H13.9893C14.6039 15.344 15.1559 15.0315 15.4684 14.5002C15.7809 13.969 15.7914 13.344 15.4893 12.8023L10.7809 4.25029C10.4789 3.6982 9.91636 3.36486 9.28095 3.36486Z" fill="#36F5C7"/>
<path d="M16.1458 24.1979C11.9792 24.1979 8.59375 20.8125 8.59375 16.6458C8.59375 16.4583 8.60417 16.2708 8.61458 16.0833C8.63542 15.6667 8.97917 15.3438 9.39583 15.3438H13.9896C14.6042 15.3438 15.1562 15.0312 15.4688 14.5C15.7812 13.9687 15.7917 13.3438 15.4896 12.8021L14.1562 10.375C14.0312 10.1563 14.0312 9.89582 14.1354 9.66666C14.2396 9.43749 14.4479 9.28125 14.6875 9.22917C15.1562 9.13542 15.6458 9.09375 16.1458 9.09375C20.3125 9.09375 23.6979 12.4792 23.6979 16.6458C23.6979 20.8125 20.3125 24.1979 16.1458 24.1979ZM10.1667 16.9062C10.3021 20.0937 12.9375 22.6354 16.1458 22.6354C19.4479 22.6354 22.1354 19.9479 22.1354 16.6458C22.1354 13.3437 19.4479 10.6562 16.1458 10.6562C16.125 10.6562 16.1146 10.6562 16.0937 10.6562L16.8646 12.0521C17.4271 13.0729 17.4062 14.2917 16.8125 15.3021C16.2187 16.3125 15.1667 16.9167 13.9896 16.9167H10.1667V16.9062Z" fill="#36F5C7"/>
</svg>
