<svg width="17" height="21" viewBox="0 0 17 21" fill="none" xmlns="http://www.w3.org/2000/svg">
<path opacity="0.3" fill-rule="evenodd" clip-rule="evenodd" d="M0.5 2.17926L8.13142 0.748367C8.37502 0.702693 8.62498 0.702693 8.86858 0.748367L16.5 2.17926V11.4623C16.5 14.3966 14.9883 17.124 12.5 18.6793L9.03 20.848C8.70573 21.0507 8.29427 21.0507 7.97 20.848L4.5 18.6793C2.01165 17.124 0.5 14.3966 0.5 11.4623V2.17926Z" fill="#292929"/>
<path fill-rule="evenodd" clip-rule="evenodd" d="M7.67505 12.9293C7.43547 12.9293 7.19588 12.8334 7.00421 12.6418L5.08755 10.7251C4.70422 10.3418 4.70422 9.76676 5.08755 9.38343C5.47088 9.00009 6.0938 9.00009 6.42922 9.38343L7.67505 10.6293L10.8375 7.46676C11.2209 7.08343 11.7959 7.08343 12.1792 7.46676C12.5625 7.85009 12.5625 8.42509 12.1792 8.80843L8.34588 12.6418C8.15422 12.8334 7.91463 12.9293 7.67505 12.9293Z" fill="#292929"/>
</svg>
